<?xml version="1.0" encoding="UTF-8" standalone="no"?>
<svg
   viewBox="0 0 370 27.710001"
   preserveAspectRatio="xMidYMid meet"
   class="css-8aabad"
   id="gfdbghfe"
   version="1.1"
   sodipodi:docname="8f5cad1b16b6aa1032db42d3a18a08b8.svg"
   width="370"
   height="27.710001"
   xmlns:inkscape="http://www.inkscape.org/namespaces/inkscape"
   xmlns:sodipodi="http://sodipodi.sourceforge.net/DTD/sodipodi-0.dtd"
   xmlns="http://www.w3.org/2000/svg"
   xmlns:svg="http://www.w3.org/2000/svg">
  <sodipodi:namedview
     id="namedview26"
     pagecolor="#ffffff"
     bordercolor="#666666"
     borderopacity="1.0"
     inkscape:pageshadow="2"
     inkscape:pageopacity="0.0"
     inkscape:pagecheckerboard="0" />
  <defs
     id="SvgjsDefs9421" />
  <g
     id="SvgjsG9422"
     featurekey="aMgJeN-0"
     transform="matrix(0.73648752,0,0,0.73648752,-1.7901874,-22.156801)"
     fill="#111111">
    <g
       id="g19">
      <path
         d="m 97.4,62 c -0.5,-2.2 -1.2,-5 -1.8,-6.4 -0.1,-0.3 -0.2,-0.6 -0.4,-1 -1,-2.7 -2.9,-7.7 -7.5,-7.7 H 70.6 c 1.7,1.6 2.7,3.6 3.4,5.3 h 3.5 l 0.6,12.3 c 0.1,1.3 1.1,2.4 2.3,2.5 1.2,0.1 2.4,0.2 3.7,0.2 1.2,0 2.4,-0.1 3.7,-0.2 1.3,-0.1 2.3,-1.3 2.3,-2.6 l 0.2,-7.9 c 0.1,0.4 0.3,0.8 0.4,1.1 0.4,1 1,3.3 1.5,5.5 0.4,1.6 2.1,2.5 3.6,1.9 h 0.1 c 1.2,-0.5 1.8,-1.8 1.5,-3 z"
         id="path3" />
      <circle
         cx="84.199997"
         cy="39.099998"
         r="6.3000002"
         id="circle5" />
      <path
         d="M 52.3,46.8 H 25 c 1.7,1.6 2.7,3.7 3.4,5.3 h 3 l 1.2,12.2 c 0,1.3 1,2.4 2.3,2.6 1.2,0.1 2.4,0.2 3.6,0.2 1.2,0 2.5,-0.1 3.7,-0.2 1.3,-0.1 2.3,-1.3 2.3,-2.6 l 1.1,-12.2 h 3.2 c 0.7,-1.6 1.8,-3.7 3.5,-5.3 z"
         id="path7" />
      <circle
         cx="38.599998"
         cy="39.099998"
         r="6.3000002"
         id="circle9" />
      <path
         d="m 27.3,55.6 c -0.1,-0.3 -0.2,-0.6 -0.4,-1 -1,-2.7 -2.9,-7.7 -7.5,-7.7 h -7.2 c -4.7,0 -6.5,5 -7.5,7.7 C 4.6,55 4.4,55.3 4.3,55.6 3.7,57 3,59.8 2.5,62 c -0.3,1.3 0.4,2.5 1.6,3 0,0 0,0 0.1,0 1.5,0.6 3.2,-0.3 3.6,-1.9 0.5,-2.2 1.1,-4.6 1.5,-5.5 0.1,-0.3 0.3,-0.7 0.4,-1.1 l 0.2,7.9 c 0,1.3 1,2.4 2.3,2.6 1.2,0.1 2.4,0.2 3.6,0.2 1.2,0 2.5,-0.1 3.6,-0.2 1.3,-0.1 2.3,-1.3 2.3,-2.6 l 0.2,-7.9 c 0.1,0.4 0.3,0.8 0.4,1.1 0.4,1 1,3.3 1.5,5.5 0.4,1.6 2.1,2.5 3.6,1.9 0,0 0,0 0.1,0 1.2,-0.5 1.9,-1.8 1.6,-3 -0.5,-2.3 -1.2,-5 -1.8,-6.4 z"
         id="path11" />
      <circle
         cx="15.8"
         cy="39.099998"
         r="6.3000002"
         id="circle13" />
      <path
         d="M 72.9,55.6 C 72.8,55.3 72.7,55 72.5,54.6 71.5,51.9 69.6,46.9 65,46.9 H 64.8 58 57.8 c -4.7,0 -6.5,5 -7.5,7.7 -0.1,0.4 -0.3,0.7 -0.4,1 -0.6,1.4 -1.3,4.2 -1.8,6.4 -0.3,1.3 0.4,2.5 1.6,3 0,0 0,0 0.1,0 1.5,0.6 3.2,-0.3 3.6,-1.9 0.5,-2.2 1.1,-4.6 1.5,-5.5 0.1,-0.3 0.3,-0.7 0.4,-1.1 l 0.2,7.9 c 0,1.3 1,2.4 2.3,2.6 1.2,0.1 2.4,0.2 3.6,0.2 1.2,0 2.5,-0.1 3.6,-0.2 1.3,-0.1 2.3,-1.3 2.3,-2.6 l 0.2,-7.9 c 0.1,0.4 0.3,0.8 0.4,1.1 0.4,1 1,3.3 1.5,5.5 0.4,1.6 2.1,2.5 3.6,1.9 0,0 0,0 0.1,0 1.2,-0.5 1.9,-1.8 1.6,-3 -0.5,-2.3 -1.2,-5 -1.8,-6.4 z"
         id="path15" />
      <circle
         cx="61.400002"
         cy="39.099998"
         r="6.3000002"
         id="circle17" />
    </g>
  </g>
  <g
     id="SvgjsG9423"
     featurekey="8L6ael-0"
     transform="matrix(1.8465759,0,0,1.8465759,87.008546,-9.2215159)"
     fill="#111111">
    <path
       d="m 10.56,5.52 q 1.22,0.46 2.2,1.48 2.1,2.12 2.1,5.41 0,3.29 -2.1,5.43 -0.98,1.02 -2.2,1.48 -1.26,0.52 -2.58,0.52 H 2.32 Q 2.04,19.84 1.83,19.63 1.62,19.42 1.62,19.14 V 17.7 q 0,-0.3 0.21,-0.51 0.21,-0.21 0.49,-0.21 h 5.6 q 1.78,0 2.89,-1.3 1.11,-1.3 1.11,-3.26 0,-1.96 -1.11,-3.26 Q 9.7,7.86 7.92,7.86 H 2.32 Q 2.04,7.86 1.83,7.65 1.62,7.44 1.62,7.14 V 5.7 Q 1.62,5.42 1.83,5.21 2.04,5 2.32,5 h 5.66 q 1.32,0 2.58,0.52 z m 17.968,8.58 3.02,4.62 q 0.22,0.36 0.02,0.72 -0.08,0.16 -0.25,0.26 -0.17,0.1 -0.35,0.1 h -1.82 q -0.18,0 -0.34,-0.09 -0.16,-0.09 -0.24,-0.23 l -3.04,-4.82 h -3.56 v 4.44 q 0,0.28 -0.21,0.49 -0.21,0.21 -0.49,0.21 h -1.52 q -0.28,0 -0.49,-0.21 -0.21,-0.21 -0.21,-0.49 v -6.58 q 0,-0.28 0.21,-0.49 0.21,-0.21 0.49,-0.21 h 6.16 q 1.76,0 2.34,-1 0.2,-0.32 0.2,-0.92 0,-0.94 -0.62,-1.48 -0.64,-0.58 -1.84,-0.58 h -6.24 q -0.28,0 -0.49,-0.21 -0.21,-0.21 -0.21,-0.49 V 5.7 q 0,-0.28 0.21,-0.49 Q 19.468,5 19.748,5 h 6.42 q 2.34,0 3.74,1.32 1.46,1.32 1.46,3.58 0,1.46 -0.64,2.49 -0.64,1.03 -1.86,1.57 z m 9.428,-3.16 q 0.3,0 0.5,0.21 0.2,0.21 0.2,0.51 v 7.48 q 0,0.28 -0.2,0.49 -0.2,0.21 -0.5,0.21 h -1.52 q -0.28,0 -0.49,-0.21 -0.21,-0.21 -0.21,-0.49 v -7.48 q 0,-0.3 0.21,-0.51 0.21,-0.21 0.49,-0.21 z m 0,-5.94 q 0.3,0 0.5,0.21 0.2,0.21 0.2,0.49 v 3.7 q 0,0.3 -0.2,0.51 -0.2,0.21 -0.5,0.21 h -1.52 q -0.28,0 -0.49,-0.21 Q 35.736,9.7 35.736,9.4 V 5.7 q 0,-0.28 0.21,-0.49 Q 36.156,5 36.436,5 Z m 18.188,0.32 q 0.22,0.3 0.08,0.66 l -5.48,13.54 q -0.08,0.2 -0.26,0.32 -0.18,0.12 -0.4,0.12 h -1.76 q -0.22,0 -0.4,-0.12 -0.18,-0.12 -0.26,-0.32 L 42.184,5.98 Q 42.024,5.64 42.244,5.32 42.464,5 42.824,5 h 6.68 q 0.28,0 0.49,0.21 0.21,0.21 0.21,0.51 v 1.46 q 0,0.3 -0.21,0.51 -0.21,0.21 -0.49,0.21 h -3.36 l 3.06,7.7 4.02,-10.16 q 0.08,-0.2 0.26,-0.32 Q 53.664,5 53.884,5 h 1.68 q 0.18,0 0.34,0.09 0.16,0.09 0.24,0.23 z m 14.168,11.64 q 0.3,0 0.5,0.21 0.2,0.21 0.2,0.51 v 1.46 q 0,0.28 -0.2,0.49 -0.2,0.21 -0.5,0.21 h -9.88 q -0.28,0 -0.49,-0.21 -0.21,-0.21 -0.21,-0.49 v -1.46 q 0,-0.3 0.21,-0.51 0.21,-0.21 0.49,-0.21 z m -9.88,-3.1 q -0.28,0 -0.49,-0.21 -0.21,-0.21 -0.21,-0.49 v -1.5 q 0,-0.28 0.21,-0.49 0.21,-0.21 0.49,-0.21 h 8.98 q 0.3,0 0.51,0.21 0.21,0.21 0.21,0.49 v 1.5 q 0,0.28 -0.21,0.49 -0.21,0.21 -0.51,0.21 z M 70.312,5 q 0.3,0 0.5,0.21 0.2,0.21 0.2,0.49 v 1.46 q 0,0.3 -0.2,0.51 -0.2,0.21 -0.5,0.21 h -9.88 q -0.28,0 -0.49,-0.21 -0.21,-0.21 -0.21,-0.51 V 5.7 q 0,-0.28 0.21,-0.49 Q 60.152,5 60.432,5 Z m 14.668,7.42 q 0.86,0.54 1.31,1.32 0.45,0.78 0.45,1.74 0,2.26 -1.72,3.46 -1.16,0.84 -3.14,1.06 H 81.8 Q 81.52,20 81.34,19.82 81.1,19.6 81.1,19.3 v -1.44 q 0,-0.26 0.18,-0.46 0.18,-0.2 0.44,-0.24 0.94,-0.1 1.46,-0.44 0.4,-0.24 0.54,-0.62 0.08,-0.22 0.08,-0.56 0,-0.22 -0.08,-0.38 -0.08,-0.16 -0.28,-0.3 -0.58,-0.4 -1.5,-0.68 l -0.32,-0.1 q -1,-0.28 -1.84,-0.46 -0.18,-0.04 -0.58,-0.14 l -0.22,-0.06 q -0.72,-0.18 -1.52,-0.5 -1.18,-0.5 -1.94,-1.26 -0.88,-0.88 -0.88,-2.32 0,-1.98 1.52,-3.22 Q 77.2,5.24 79.08,5 79.4,4.96 79.63,5.18 79.86,5.4 79.86,5.7 v 1.44 q 0,0.26 -0.16,0.46 -0.16,0.2 -0.41,0.23 -0.25,0.03 -0.51,0.11 -0.58,0.22 -0.82,0.43 -0.24,0.21 -0.34,0.43 -0.1,0.34 -0.1,0.64 0,0.16 0.18,0.34 0.28,0.28 0.82,0.5 0.24,0.1 0.84,0.3 l 2.5,0.62 0.12,0.04 q 0.94,0.26 1.36,0.4 0.94,0.32 1.64,0.78 z M 81.64,7.9 Q 81.4,7.84 81.25,7.65 81.1,7.46 81.1,7.2 V 5.74 q 0,-0.32 0.26,-0.54 0.1,-0.1 0.26,-0.13 0.16,-0.03 0.3,-0.01 1.76,0.28 2.86,1.2 1.5,1.24 1.6,3.16 0.02,0.28 -0.19,0.51 -0.21,0.23 -0.51,0.23 h -1.56 q -0.26,0 -0.46,-0.18 Q 83.46,9.8 83.44,9.54 83.36,9.02 83.1,8.68 82.68,8.18 81.8,7.92 81.74,7.92 81.72,7.9 Z m -2.34,9.18 q 0.24,0.04 0.4,0.24 0.16,0.2 0.16,0.44 v 1.48 q 0,0.32 -0.24,0.54 -0.2,0.16 -0.46,0.16 h -0.1 Q 77.2,19.66 76,18.72 q -1.56,-1.24 -1.76,-3.46 -0.04,-0.32 0.18,-0.55 0.22,-0.23 0.52,-0.23 h 1.58 q 0.28,0 0.48,0.19 0.2,0.19 0.22,0.47 0.06,1 0.98,1.54 0.42,0.24 1.1,0.4 z m 24.228,1.62 q 0.12,0.14 0.14,0.34 0.02,0.2 -0.07,0.38 -0.09,0.18 -0.26,0.28 -0.17,0.1 -0.37,0.1 h -1.9 q -0.18,0 -0.33,-0.08 -0.15,-0.08 -0.25,-0.22 l -4.78,-6.88 -1.96,1.84 v 4.64 q 0,0.28 -0.21,0.49 -0.21,0.21 -0.49,0.21 h -1.52 q -0.28,0 -0.49,-0.21 -0.21,-0.21 -0.21,-0.49 v -5.56 q 0,-0.32 0.22,-0.5 L 99.408,5.2 Q 99.608,5 99.888,5 h 2.16 q 0.2,0 0.38,0.12 0.18,0.12 0.26,0.32 0.08,0.2 0.04,0.41 -0.04,0.21 -0.2,0.37 l -4.68,4.4 z m -12,-8.6 q -0.28,0 -0.49,-0.2 -0.21,-0.2 -0.21,-0.5 V 5.7 q 0,-0.28 0.21,-0.49 Q 91.248,5 91.528,5 h 1.52 q 0.28,0 0.49,0.21 0.21,0.21 0.21,0.49 v 3.7 q 0,0.3 -0.21,0.5 -0.21,0.2 -0.49,0.2 z m 21.228,-4.94 q 0.24,0.2 0.24,0.54 v 1.5 q 0,0.26 -0.15,0.45 -0.15,0.19 -0.41,0.25 -1.28,0.26 -2.18,1.22 -1.22,1.28 -1.22,3.33 0,2.05 1.22,3.35 0.9,0.94 2.18,1.2 0.26,0.06 0.41,0.25 0.15,0.19 0.15,0.45 v 1.5 q 0,0.32 -0.24,0.54 -0.22,0.16 -0.46,0.16 h -0.12 q -2.32,-0.38 -3.98,-2.1 -2.08,-2.14 -2.08,-5.33 0,-3.19 2.08,-5.37 1.62,-1.68 3.98,-2.08 0.32,-0.06 0.58,0.14 z m 6.28,1.94 q 2.08,2.18 2.08,5.37 0,3.19 -2.08,5.33 -1.66,1.72 -3.98,2.1 h -0.12 q -0.24,0 -0.46,-0.16 -0.24,-0.22 -0.24,-0.54 v -1.5 q 0,-0.26 0.15,-0.45 0.15,-0.19 0.41,-0.25 1.28,-0.26 2.18,-1.2 1.22,-1.3 1.22,-3.35 0,-2.05 -1.22,-3.33 -0.9,-0.96 -2.18,-1.22 -0.26,-0.06 -0.41,-0.25 -0.15,-0.19 -0.15,-0.45 V 5.7 q 0,-0.34 0.25,-0.54 0.25,-0.2 0.57,-0.14 2.36,0.4 3.98,2.08 z m 15.728,7 3.02,4.62 q 0.22,0.36 0.02,0.72 -0.08,0.16 -0.25,0.26 -0.17,0.1 -0.35,0.1 h -1.82 q -0.18,0 -0.34,-0.09 -0.16,-0.09 -0.24,-0.23 l -3.04,-4.82 h -3.56 v 4.44 q 0,0.28 -0.21,0.49 -0.21,0.21 -0.49,0.21 h -1.52 q -0.28,0 -0.49,-0.21 -0.21,-0.21 -0.21,-0.49 v -6.58 q 0,-0.28 0.21,-0.49 0.21,-0.21 0.49,-0.21 h 6.16 q 1.76,0 2.34,-1 0.2,-0.32 0.2,-0.92 0,-0.94 -0.62,-1.48 -0.64,-0.58 -1.84,-0.58 h -6.24 q -0.28,0 -0.49,-0.21 -0.21,-0.21 -0.21,-0.49 V 5.7 q 0,-0.28 0.21,-0.49 0.21,-0.21 0.49,-0.21 h 6.42 q 2.34,0 3.74,1.32 1.46,1.32 1.46,3.58 0,1.46 -0.64,2.49 -0.64,1.03 -1.86,1.57 z m 17.788,2.86 q 0.3,0 0.5,0.21 0.2,0.21 0.2,0.51 v 1.46 q 0,0.28 -0.2,0.49 -0.2,0.21 -0.5,0.21 h -9.88 q -0.28,0 -0.49,-0.21 -0.21,-0.21 -0.21,-0.49 v -1.46 q 0,-0.3 0.21,-0.51 0.21,-0.21 0.49,-0.21 z m -9.88,-3.1 q -0.28,0 -0.49,-0.21 -0.21,-0.21 -0.21,-0.49 v -1.5 q 0,-0.28 0.21,-0.49 0.21,-0.21 0.49,-0.21 h 8.98 q 0.3,0 0.51,0.21 0.21,0.21 0.21,0.49 v 1.5 q 0,0.28 -0.21,0.49 -0.21,0.21 -0.51,0.21 z M 152.552,5 q 0.3,0 0.5,0.21 0.2,0.21 0.2,0.49 v 1.46 q 0,0.3 -0.2,0.51 -0.2,0.21 -0.5,0.21 h -9.88 q -0.28,0 -0.49,-0.21 -0.21,-0.21 -0.21,-0.51 V 5.7 q 0,-0.28 0.21,-0.49 0.21,-0.21 0.49,-0.21 z"
       id="path22" />
  </g>
</svg>
